<?xml version="1.0" standalone="no"?>
<!DOCTYPE svg PUBLIC "-//W3C//DTD SVG 20010904//EN"
 "http://www.w3.org/TR/2001/REC-SVG-20010904/DTD/svg10.dtd">
<svg version="1.0" xmlns="http://www.w3.org/2000/svg"
 width="474.000000pt" height="266.000000pt" viewBox="0 0 474.000000 266.000000"
 preserveAspectRatio="xMidYMid meet">

<g transform="translate(0.000000,266.000000) scale(0.100000,-0.100000)"
fill="#000000" stroke="none">
<path d="M0 1330 l0 -1330 2370 0 2370 0 0 1330 0 1330 -2370 0 -2370 0 0
-1330z m2820 1100 l0 -110 -67 -1 c-38 -1 -57 -4 -43 -6 14 -3 29 -9 35 -14 5
-5 -36 -9 -105 -9 -69 0 -110 4 -104 9 5 5 20 11 34 14 14 2 -5 5 -42 6 l-68
1 0 110 0 110 180 0 180 0 0 -110z m-2356 84 c19 -18 21 -55 5 -71 -17 -17 -3
-30 31 -28 16 1 30 -2 30 -7 0 -4 -20 -8 -45 -8 -33 0 -45 4 -45 15 0 8 -4 15
-10 15 -5 0 -10 -7 -10 -15 0 -8 -5 -15 -11 -15 -5 0 -7 -4 -4 -10 3 -5 34
-11 68 -12 62 -1 62 -1 -18 -7 -44 -4 -93 -4 -110 -1 -28 6 -29 7 -10 18 17
10 18 11 3 12 -10 0 -18 5 -18 10 0 6 21 10 46 10 45 0 45 0 30 22 -20 29 -20
47 1 70 20 22 46 23 67 2z m3920 -15 c-3 -6 -1 -21 6 -34 13 -24 8 -55 -9 -55
-5 0 -7 9 -4 20 3 11 0 26 -6 34 -12 15 -5 46 11 46 5 0 6 -5 2 -11z m-3844
-25 c0 -8 -7 -14 -15 -14 -15 0 -21 21 -9 33 10 9 24 -2 24 -19z m3796 1 c15
-23 15 -27 0 -50 -22 -34 -21 -35 23 -35 34 0 39 -3 39 -25 l0 -25 -106 0
c-58 0 -103 2 -101 4 2 2 38 7 79 10 71 7 108 16 62 16 -11 0 -25 7 -30 16 -8
15 -10 15 -15 0 -5 -11 -19 -16 -52 -16 -25 0 -45 5 -45 10 0 6 18 10 40 10
37 0 52 11 31 24 -16 11 -19 45 -4 65 20 29 59 27 79 -4z m-721 -20 c38 -37
32 -72 -25 -153 -27 -39 -50 -74 -50 -77 0 -3 19 -4 43 -3 32 2 42 -1 42 -12
0 -8 -8 -15 -17 -14 -10 0 -52 1 -93 2 -42 1 -75 6 -75 12 0 6 17 10 38 10 36
0 40 4 90 78 28 42 52 88 52 101 0 32 -27 61 -57 61 -21 0 -23 -4 -23 -44 0
-91 -16 -96 -85 -26 -41 42 -47 52 -35 60 16 11 16 10 78 14 23 2 45 6 49 9
14 14 45 6 68 -18z m-1205 -165 l0 -140 -75 0 c-56 0 -77 4 -81 14 -3 8 -17
17 -30 20 -28 7 -28 24 2 40 31 18 34 27 34 119 l0 87 75 0 75 0 0 -140z
m-2100 99 c0 -5 -7 -9 -15 -9 -15 0 -20 12 -9 23 8 8 24 -1 24 -14z m940 -134
l0 -155 -115 0 c-94 0 -115 -3 -115 -14 0 -10 14 -16 43 -19 23 -2 -14 -4 -83
-4 -69 0 -106 2 -82 4 28 3 42 9 42 19 0 11 -21 14 -115 14 -96 0 -115 2 -115
15 0 8 -6 25 -12 36 -10 17 -10 23 0 26 9 3 12 37 12 119 l0 114 270 0 270 0
0 -155z m-1050 130 c0 -8 -4 -15 -10 -15 -5 0 -10 7 -10 15 0 8 5 15 10 15 6
0 10 -7 10 -15z m1392 -100 c13 -20 20 -85 10 -85 -6 0 -20 -9 -31 -21 l-19
-21 -34 24 c-18 12 -34 24 -36 24 -7 4 22 84 30 84 4 0 8 11 8 25 0 13 6 28
13 32 8 4 17 17 22 28 6 16 10 11 19 -30 6 -27 14 -55 18 -60z m2868 80 c0 -8
-4 -15 -10 -15 -5 0 -10 7 -10 15 0 8 5 15 10 15 6 0 10 -7 10 -15z m97 -17
c-3 -8 -6 -5 -6 6 -1 11 2 17 5 13 3 -3 4 -12 1 -19z m-4362 -18 c3 -5 1 -10
-4 -10 -6 0 -11 5 -11 10 0 6 2 10 4 10 3 0 8 -4 11 -10z m46 -93 c-13 -13
-21 5 -14 33 l6 24 9 -24 c5 -14 5 -27 -1 -33z m4115 38 c27 -14 27 -15 7 -15
-15 0 -23 -6 -24 -17 0 -14 -2 -15 -6 -3 -3 8 -10 18 -16 21 -5 4 -6 12 -3 18
9 14 8 14 42 -4z m-4156 1 c0 -3 -4 -8 -10 -11 -5 -3 -10 -1 -10 4 0 6 5 11
10 11 6 0 10 -2 10 -4z m3640 -6 c0 -5 -5 -10 -11 -10 -5 0 -7 5 -4 10 3 6 8
10 11 10 2 0 4 -4 4 -10z m210 0 c0 -5 -4 -10 -10 -10 -5 0 -10 5 -10 10 0 6
5 10 10 10 6 0 10 -4 10 -10z m-1290 -65 l0 -55 -150 0 -150 0 0 55 0 55 150
0 150 0 0 -55z m116 8 c13 -49 -34 -84 -56 -43 -18 33 -5 70 25 70 18 0 26 -7
31 -27z m1169 17 c3 -5 1 -10 -4 -10 -6 0 -11 5 -11 10 0 6 2 10 4 10 3 0 8
-4 11 -10z m-3850 -10 c3 -5 1 -10 -4 -10 -6 0 -11 5 -11 10 0 6 2 10 4 10 3
0 8 -4 11 -10z m1925 -21 c0 -5 -7 -9 -15 -9 -15 0 -20 12 -9 23 8 8 24 -1 24
-14z m68 4 c2 -8 -5 -13 -17 -13 -21 0 -35 13 -24 24 10 10 36 3 41 -11z
m1512 7 c0 -5 -7 -10 -15 -10 -8 0 -15 5 -15 10 0 6 7 10 15 10 8 0 15 -4 15
-10z m50 0 c0 -5 -4 -10 -10 -10 -5 0 -10 5 -10 10 0 6 5 10 10 10 6 0 10 -4
10 -10z m45 1 c3 -5 1 -12 -5 -16 -5 -3 -10 1 -10 9 0 18 6 21 15 7z m-1725
-11 c0 -5 -2 -10 -4 -10 -3 0 -8 5 -11 10 -3 6 -1 10 4 10 6 0 11 -4 11 -10z
m-1435 -29 c3 -5 1 -12 -5 -16 -5 -3 -10 1 -10 9 0 18 6 21 15 7z m3415 1 c0
-13 -12 -22 -22 -16 -10 6 -1 24 13 24 5 0 9 -4 9 -8z m-3523 -8 c-3 -3 -12
-4 -19 -1 -8 3 -5 6 6 6 11 1 17 -2 13 -5z m1025 -66 c-9 -9 -12 -7 -12 12 0
19 3 21 12 12 9 -9 9 -15 0 -24z m2557 -8 l41 0 0 -60 0 -60 -115 0 -115 0 0
60 0 60 49 0 c28 0 53 5 56 10 4 7 12 7 25 0 10 -5 37 -10 59 -10z m-309 -35
c0 -8 -6 -15 -14 -15 -17 0 -28 14 -19 24 12 12 33 6 33 -9z m-3356 -1 c14 -5
16 -45 16 -345 l0 -339 -22 -5 c-13 -3 -79 -4 -148 -3 l-125 3 -3 339 c-2 265
1 341 10 348 15 9 249 11 272 2z m1116 -4 c0 -5 -4 -10 -10 -10 -5 0 -10 5
-10 10 0 6 5 10 10 10 6 0 10 -4 10 -10z m2777 -42 c-3 -8 -6 -5 -6 6 -1 11 2
17 5 13 3 -3 4 -12 1 -19z m-3177 -13 c0 -8 -6 -15 -14 -15 -17 0 -28 14 -19
24 12 12 33 6 33 -9z m385 5 c-3 -5 -12 -10 -18 -10 -7 0 -6 4 3 10 19 12 23
12 15 0z m152 -6 c-3 -3 -12 -4 -19 -1 -8 3 -5 6 6 6 11 1 17 -2 13 -5z m1316
-67 c-10 -17 -20 4 -15 30 l6 28 6 -25 c4 -14 5 -28 3 -33z m774 1 c-3 -8 -6
-5 -6 6 -1 11 2 17 5 13 3 -3 4 -12 1 -19z m-266 -45 c1 -32 3 -50 6 -40 3 13
12 17 31 15 26 -3 27 -5 27 -68 0 -63 -1 -65 -27 -68 -21 -3 -27 2 -31 20 -3
17 -5 15 -6 -9 l-1 -33 -75 0 -75 0 -1 33 c-1 24 -3 26 -6 9 -4 -18 -10 -23
-31 -20 -26 3 -27 5 -27 68 0 63 1 65 27 68 19 2 28 -2 31 -15 3 -10 5 8 6 40
l1 57 75 0 75 0 1 -57z m-2111 7 c0 -5 -4 -10 -10 -10 -5 0 -10 5 -10 10 0 6
5 10 10 10 6 0 10 -4 10 -10z m-300 -25 c0 -14 -4 -25 -10 -25 -5 0 -10 11
-10 25 0 14 5 25 10 25 6 0 10 -11 10 -25z m2728 0 c-1 -14 -6 -25 -10 -25 -4
0 -8 11 -8 25 0 14 4 25 10 25 5 0 9 -11 8 -25z m-1422 -21 c85 -22 150 -78
189 -165 54 -120 43 -300 -23 -409 -31 -50 -116 -114 -144 -107 -10 3 -16 2
-13 -3 7 -11 -12 -17 -77 -25 -66 -8 -145 11 -202 50 -28 19 -41 23 -51 15 -9
-7 -15 -7 -19 -1 -4 5 1 14 11 20 16 8 15 12 -9 36 -59 58 -90 206 -68 317 15
76 39 126 88 180 89 98 183 125 318 92z m751 -3 c6 -1 11 -15 10 -33 l-2 -33
-85 -2 c-47 -1 -95 -2 -107 -2 l-23 -1 0 -314 0 -313 -42 1 -43 1 -3 313 -2
312 -68 1 c-37 1 -84 1 -104 0 -38 -3 -38 -3 -38 37 l0 40 185 -2 c101 -1 192
1 201 4 9 4 38 3 63 -1 25 -4 51 -8 58 -8z m-1287 -345 l0 -354 -32 3 c-18 2
-39 3 -45 4 -19 2 -19 687 0 694 6 3 27 6 45 6 l32 1 0 -354z m2478 338 c22
-6 23 -8 20 -143 l-3 -136 -85 0 -85 0 0 135 0 135 60 6 c33 3 62 6 65 7 3 1
15 -1 28 -4z m-2948 -29 c0 -14 5 -25 10 -25 6 0 10 -9 10 -20 0 -11 4 -20 10
-20 9 0 23 -41 36 -108 l7 -32 -87 0 c-78 0 -87 2 -83 18 3 9 11 41 18 70 7
30 18 52 26 52 7 0 13 9 13 20 0 11 5 20 10 20 6 0 8 11 4 25 -5 19 -2 25 10
25 10 0 16 -9 16 -25z m3078 13 c8 -8 12 -51 12 -129 0 -133 -6 -146 -65 -135
l-35 7 0 128 c0 70 3 131 7 134 11 12 68 8 81 -5z m-1228 -38 c0 -11 -7 -20
-15 -20 -8 0 -15 9 -15 20 0 11 7 20 15 20 8 0 15 -9 15 -20z m-2262 -97 c4
-6 6 -104 4 -217 l-3 -206 -154 0 -155 0 0 215 0 214 128 4 c163 3 172 3 180
-10z m2990 -9 c16 -11 22 -25 22 -53 0 -20 5 -42 11 -48 5 -5 9 -38 7 -74 l-3
-64 -68 -3 c-65 -3 -67 -2 -79 25 -7 15 -17 32 -23 36 -7 6 -6 10 3 14 6 2 12
15 12 28 0 13 7 30 15 39 8 8 15 30 15 50 0 34 27 66 55 66 6 0 21 -7 33 -16z
m-1198 -159 c0 -8 -4 -15 -9 -15 -13 0 -22 16 -14 24 11 11 23 6 23 -9z m900
-5 c0 -5 -4 -10 -10 -10 -5 0 -10 5 -10 10 0 6 5 10 10 10 6 0 10 -4 10 -10z
m100 -10 c0 -5 -4 -10 -10 -10 -5 0 -10 5 -10 10 0 6 5 10 10 10 6 0 10 -4 10
-10z m659 -162 c33 -36 34 -38 17 -57 -24 -26 -14 -38 34 -43 39 -3 40 -3 40
29 0 18 5 33 10 33 6 0 10 -32 10 -75 0 -43 -4 -75 -10 -75 -5 0 -10 16 -10
36 l0 36 -52 -6 c-29 -3 -63 -7 -76 -9 -12 -2 -43 -23 -67 -47 l-45 -44 -30
29 c-28 26 -45 24 -18 -3 17 -17 2 -27 -17 -12 -9 7 -13 15 -11 18 3 2 -2 11
-10 20 -14 13 -5 26 87 118 57 57 106 100 109 96 3 -4 20 -24 39 -44z m-4209
2 c0 -5 -4 -10 -10 -10 -5 0 -10 5 -10 10 0 6 5 10 10 10 6 0 10 -4 10 -10z
m3666 -38 c19 -12 33 -47 32 -83 0 -73 11 -69 -196 -69 -103 -1 -206 -5 -229
-9 -65 -12 -77 1 -71 79 3 46 9 66 23 76 15 11 66 14 224 14 113 0 211 -4 217
-8z m-2476 -57 c8 -9 10 -29 7 -50 -3 -19 -2 -37 2 -40 5 -2 11 -16 14 -30 7
-39 -16 -55 -79 -55 -52 0 -54 1 -54 28 0 15 7 37 15 50 11 15 13 27 7 39 -26
51 52 102 88 58z m1220 -35 c0 -5 -7 -10 -15 -10 -8 0 -15 5 -15 10 0 6 7 10
15 10 8 0 15 -4 15 -10z m-1495 -41 c-5 -7 -11 -6 -21 2 -11 9 -12 15 -2 26
10 12 13 12 20 -1 5 -9 6 -21 3 -27z m-665 16 c12 -14 10 -42 -5 -77 -6 -16
-1 -18 35 -18 45 0 47 -19 2 -21 -27 -2 -27 -2 -2 -6 14 -3 29 -9 35 -14 5 -5
-33 -9 -98 -9 -116 0 -149 17 -43 22 62 3 64 4 50 22 -13 18 -15 18 -26 4 -10
-13 -21 -15 -53 -8 l-40 8 43 1 c46 1 49 6 27 35 -19 25 -19 41 1 60 20 20 58
21 74 1z m68 -20 c0 -13 -9 -32 -19 -41 -21 -19 -27 -6 -7 14 9 9 9 12 -2 12
-9 0 -8 5 5 20 23 25 23 25 23 -5z m-321 -27 c-3 -8 -6 -5 -6 6 -1 11 2 17 5
13 3 -3 4 -12 1 -19z m3073 7 c0 -8 -6 -15 -14 -15 -17 0 -28 14 -19 24 12 12
33 6 33 -9z m-233 -1 c-3 -3 -12 -4 -19 -1 -8 3 -5 6 6 6 11 1 17 -2 13 -5z
m548 -25 c-4 -5 -1 -24 5 -40 10 -24 10 -32 0 -42 -10 -10 -12 -8 -6 7 4 11 0
26 -9 36 -16 17 -11 50 7 50 5 0 6 -5 3 -11z m62 -3 c-3 -7 1 -23 9 -34 8 -11
11 -28 8 -37 -5 -13 -10 -8 -20 20 -11 34 -10 65 3 65 3 0 3 -6 0 -14z m68 -5
c-3 -11 -1 -22 5 -26 13 -8 13 -42 0 -50 -5 -3 -7 0 -4 9 3 8 0 24 -6 36 -6
12 -9 28 -6 36 8 21 18 17 11 -5z m-1805 -1 c0 -5 7 -10 15 -10 16 0 20 -16 6
-24 -5 -3 -16 5 -25 19 -9 14 -12 25 -6 25 5 0 10 -4 10 -10z m403 -7 c-7 -2
-21 -2 -30 0 -10 3 -4 5 12 5 17 0 24 -2 18 -5z m-1676 -35 c-3 -8 -6 -5 -6 6
-1 11 2 17 5 13 3 -3 4 -12 1 -19z m1845 7 c0 -5 -5 -11 -11 -13 -6 -2 -11 4
-11 13 0 9 5 15 11 13 6 -2 11 -8 11 -13z m-122 -5 c0 -5 -22 -10 -50 -10 -27
0 -50 5 -50 10 0 6 23 10 50 10 28 0 50 -4 50 -10z m24 -29 c8 -13 -28 -20
-75 -14 -27 4 -36 9 -27 14 17 11 95 11 102 0z m-1524 -51 c-27 -7 -43 -3 -35
9 2 5 17 6 32 3 l28 -6 -25 -6z m1530 10 c0 -5 -13 -10 -29 -10 -17 0 -33 5
-36 10 -4 6 8 10 29 10 20 0 36 -4 36 -10z m635 -51 c-4 -11 0 -26 9 -35 9 -8
16 -21 16 -27 0 -7 14 -20 30 -29 31 -18 66 -81 55 -98 -4 -6 -58 -10 -121
-10 -108 0 -114 1 -114 20 0 35 28 77 60 92 21 9 30 20 30 35 0 13 5 23 10 23
6 0 10 14 10 31 0 18 4 28 10 24 6 -4 8 -15 5 -26z m-2381 -5 c13 -5 14 -9 5
-20 -9 -11 -15 -11 -25 -3 -8 6 -11 15 -8 20 6 11 8 11 28 3z m846 -4 c0 -6
72 -11 183 -13 l182 -2 -192 -3 c-166 -2 -193 0 -193 13 0 8 5 15 10 15 6 0
10 -4 10 -10z m2545 -58 c-11 -11 -22 11 -17 35 l5 28 8 -29 c5 -17 7 -32 4
-34z m-2220 -78 c-1 -53 -6 -99 -12 -105 -7 -7 -63 -12 -137 -14 -103 -2 -128
0 -138 13 -17 20 -18 195 -1 202 7 3 74 4 150 2 l139 -3 -1 -95z m1739 49 c9
-25 14 -49 11 -51 -5 -5 -21 33 -31 73 -11 43 3 27 20 -22z m113 -30 c-2 -16
-4 -3 -4 27 0 30 2 43 4 28 2 -16 2 -40 0 -55z m106 25 c-3 -27 -10 -48 -14
-48 -5 0 -7 11 -4 25 3 14 7 37 10 51 9 42 14 24 8 -28z m-2590 -11 c-10 -17
-20 4 -15 30 l6 28 6 -25 c4 -14 5 -28 3 -33z m1581 -13 c3 -9 6 -87 6 -174 0
-184 2 -180 -99 -180 -97 0 -91 -12 -91 184 0 95 3 176 7 179 3 4 43 7 89 7
65 0 83 -3 88 -16z m-1764 -89 l0 -95 -150 0 -150 0 0 88 c0 49 3 92 7 95 3 4
71 7 150 7 l143 0 0 -95z m1300 80 c0 -8 -7 -15 -15 -15 -8 0 -15 7 -15 15 0
8 7 15 15 15 8 0 15 -7 15 -15z m75 6 c7 -12 -12 -24 -25 -16 -11 7 -4 25 10
25 5 0 11 -4 15 -9z m2129 -5 c19 -8 36 -19 40 -24 3 -6 8 -121 10 -256 2
-188 0 -250 -10 -264 -10 -14 -29 -17 -122 -17 -152 0 -146 -7 -138 175 5 99
4 140 -3 130 -8 -11 -13 -12 -22 -3 -15 15 -3 34 18 26 14 -6 15 3 10 82 -6
105 2 131 45 150 43 18 129 19 172 1z m-716 -42 c12 -4 22 -12 22 -19 0 -19
-34 -25 -152 -25 l-108 0 0 25 0 25 108 0 c59 0 117 -3 130 -6z m-1485 -40
c-2 -10 -7 -41 -12 -69 l-8 -50 -2 46 c0 25 -6 50 -13 57 -8 8 -8 15 2 27 17
20 36 14 33 -11z m75 13 c7 -8 7 -18 2 -27 -6 -8 -10 -26 -11 -40 0 -21 -3
-18 -15 15 -20 54 -5 87 24 52z m1609 -9 c-3 -8 -6 -5 -6 6 -1 11 2 17 5 13 3
-3 4 -12 1 -19z m-2497 -24 c0 -8 -7 -14 -15 -14 -17 0 -18 2 -9 24 7 18 24
12 24 -10z m742 -67 c-9 -18 -21 9 -15 33 l7 25 6 -25 c4 -14 5 -29 2 -33z
m207 41 c0 -7 -4 -22 -8 -33 -7 -17 -8 -17 -13 8 -3 14 -3 29 0 32 10 9 22 5
21 -7z m-1399 -2 c0 -3 -4 -8 -10 -11 -5 -3 -10 -1 -10 4 0 6 5 11 10 11 6 0
10 -2 10 -4z m2179 -48 c1 -5 -6 -8 -15 -8 -11 0 -14 5 -10 16 3 9 6 21 7 27
0 12 17 -20 18 -35z m-849 -4 c0 -8 -4 -12 -10 -9 -5 3 -10 10 -10 16 0 5 5 9
10 9 6 0 10 -7 10 -16z m598 -96 c3 83 22 80 22 -4 0 -58 2 -67 21 -71 17 -5
20 -12 17 -47 -3 -41 -3 -41 -46 -44 -53 -4 -72 10 -72 54 0 27 4 34 20 34 18
0 20 7 22 83 l2 82 6 -75 6 -75 2 63z m298 41 c3 -6 1 -16 -5 -22 -9 -9 -14
-8 -21 3 -9 15 -4 30 10 30 5 0 12 -5 16 -11z m179 1 c11 -17 -5 -32 -21 -19
-7 6 -11 15 -8 20 7 12 21 11 29 -1z m553 -13 c4 -19 -6 -21 -27 -8 -16 10 -5
34 12 28 7 -2 13 -11 15 -20z m197 3 c3 -5 1 -10 -4 -10 -6 0 -11 5 -11 10 0
6 2 10 4 10 3 0 8 -4 11 -10z m-2718 -62 c-3 -8 -6 -5 -6 6 -1 11 2 17 5 13 3
-3 4 -12 1 -19z m-327 -24 c0 -8 -7 -14 -15 -14 -15 0 -21 21 -9 33 10 9 24
-2 24 -19z m780 -4 c-27 -7 -43 -3 -35 9 2 5 17 6 32 3 l28 -6 -25 -6z m-1423
4 c-3 -3 -12 -4 -19 -1 -8 3 -5 6 6 6 11 1 17 -2 13 -5z m3515 -169 l3 -165
-253 0 c-247 0 -253 0 -247 20 4 13 -1 25 -14 37 -24 20 -27 33 -7 33 20 0 26
32 26 143 l0 97 245 0 244 0 3 -165z m-2522 114 c0 -5 -9 -9 -20 -9 -19 0 -27
20 -13 33 7 8 33 -11 33 -24z m798 4 c-4 -22 -22 -20 -26 1 -2 10 3 16 13 16
10 0 15 -7 13 -17z m-311 1 c-3 -3 -12 -4 -19 -1 -8 3 -5 6 6 6 11 1 17 -2 13
-5z m693 -14 c0 -5 -2 -10 -4 -10 -3 0 -8 5 -11 10 -3 6 -1 10 4 10 6 0 11 -4
11 -10z m-2315 -130 l0 -105 -67 -3 -68 -3 0 104 c0 57 3 107 7 111 4 4 34 6
68 4 l60 -3 0 -105z m493 -2 l3 -108 -71 0 -70 0 0 103 c0 57 3 107 7 111 4 4
34 6 68 4 l60 -3 3 -107z m2122 42 c0 -5 -4 -10 -10 -10 -5 0 -10 5 -10 10 0
6 5 10 10 10 6 0 10 -4 10 -10z m-2480 -25 c0 -12 16 -15 85 -15 l85 0 0 -45
0 -45 -125 0 -125 0 0 45 c0 41 2 45 25 45 16 0 25 6 25 15 0 8 7 15 15 15 8
0 15 -7 15 -15z m2180 5 c0 -5 -4 -10 -10 -10 -5 0 -10 5 -10 10 0 6 5 10 10
10 6 0 10 -4 10 -10z m-1430 -15 c19 -23 425 -22 434 1 12 31 48 12 61 -33 7
-23 9 -45 4 -50 -4 -4 -9 -21 -11 -38 -2 -24 -8 -30 -28 -30 -18 0 -26 6 -28
23 -3 17 -8 21 -21 17 -25 -8 -166 -9 -179 -1 -6 3 -28 3 -49 -2 -21 -4 -70
-6 -110 -3 -67 6 -72 5 -75 -14 -4 -23 -37 -33 -49 -13 -10 15 -12 142 -2 151
11 12 40 8 53 -8z m1136 -77 c-19 -13 -36 -8 -36 10 0 28 10 32 29 14 11 -11
13 -20 7 -24z m-78 -1 c-23 -8 -44 5 -34 21 4 7 15 6 30 -1 25 -12 25 -12 4
-20z m382 7 c0 -17 -26 -19 -36 -3 -7 12 15 31 28 23 4 -3 8 -12 8 -20z m577
11 c7 -20 -2 -29 -21 -22 -9 4 -13 13 -10 22 8 19 23 19 31 0z m-1442 -5 c3
-5 1 -10 -4 -10 -6 0 -11 5 -11 10 0 6 2 10 4 10 3 0 8 -4 11 -10z m1610 0 c3
-5 1 -10 -4 -10 -6 0 -11 5 -11 10 0 6 2 10 4 10 3 0 8 -4 11 -10z m-1488 -6
c-3 -3 -12 -4 -19 -1 -8 3 -5 6 6 6 11 1 17 -2 13 -5z m1380 0 c-3 -3 -12 -4
-19 -1 -8 3 -5 6 6 6 11 1 17 -2 13 -5z"/>
<path d="M2470 2430 l0 -90 170 0 170 0 0 90 0 90 -170 0 -170 0 0 -90z"/>
<path d="M2623 2313 c9 -2 25 -2 35 0 9 3 1 5 -18 5 -19 0 -27 -2 -17 -5z"/>
<path d="M407 2503 c-12 -11 -8 -40 7 -52 18 -15 56 2 56 24 0 18 -12 19 -28
3 -7 -7 -12 -8 -12 -2 0 6 5 15 12 22 9 9 7 12 -8 12 -12 0 -24 -3 -27 -7z"/>
<path d="M4276 2477 c-28 -21 -17 -52 19 -52 24 0 31 5 34 25 3 25 3 25 -18 6
-12 -11 -21 -14 -21 -8 0 6 5 14 10 17 12 7 13 25 2 25 -5 0 -16 -6 -26 -13z"/>
<path d="M3443 2442 c-9 -6 -1 -19 27 -47 31 -31 43 -37 49 -26 12 19 2 49
-22 66 -24 17 -36 18 -54 7z"/>
<path d="M2279 2418 c-7 -13 -8 -69 -3 -150 l6 -98 58 0 58 0 -3 113 c-2 61
-4 118 -4 125 -1 8 -19 12 -56 12 -30 0 -56 -1 -56 -2z m101 -28 c0 -5 -20
-10 -45 -10 -25 0 -45 5 -45 10 0 6 20 10 45 10 25 0 45 -4 45 -10z m0 -30 c0
-5 -20 -10 -45 -10 -25 0 -45 5 -45 10 0 6 20 10 45 10 25 0 45 -4 45 -10z m0
-30 c0 -5 -20 -10 -45 -10 -25 0 -45 5 -45 10 0 6 20 10 45 10 25 0 45 -4 45
-10z m0 -55 c0 -8 -7 -15 -15 -15 -8 0 -15 7 -15 15 0 8 7 15 15 15 8 0 15 -7
15 -15z"/>
<path d="M726 2392 c-3 -5 -4 -49 -2 -98 2 -49 4 -110 5 -136 l1 -48 255 0
256 0 -3 143 -3 142 -252 3 c-138 1 -254 -2 -257 -6z"/>
<path d="M960 2090 c0 -5 12 -10 26 -10 14 0 23 4 19 10 -3 6 -15 10 -26 10
-10 0 -19 -4 -19 -10z"/>
<path d="M1534 2326 c-9 -23 0 -79 14 -84 8 -2 12 11 12 47 0 48 -14 68 -26
37z"/>
<path d="M1507 2246 c-4 -10 -5 -21 -2 -24 9 -9 17 6 13 25 -3 17 -4 17 -11
-1z"/>
<path d="M1578 2240 c-7 -24 -3 -38 8 -28 3 4 4 17 2 30 l-3 23 -7 -25z"/>
<path d="M2477 2243 c-4 -3 -7 -21 -7 -38 0 -30 3 -32 36 -33 25 -1 34 2 31
11 -3 9 6 13 28 13 21 0 31 -5 28 -12 -3 -8 14 -12 56 -13 60 -1 61 0 61 27 0
21 2 24 10 12 8 -12 10 -9 10 13 0 21 -5 27 -21 27 -13 0 -18 -4 -13 -12 6
-10 4 -10 -8 0 -13 10 -17 10 -21 0 -4 -10 -6 -10 -6 0 -1 6 -10 12 -22 12
-12 0 -17 -4 -14 -11 4 -6 -3 -5 -14 3 -18 11 -23 11 -31 -2 -6 -10 -10 -11
-10 -2 0 6 -6 12 -14 12 -8 0 -17 -6 -19 -12 -4 -10 -6 -10 -6 0 -1 13 -43 17
-54 5z m220 -45 c-3 -8 -6 -5 -6 6 -1 11 2 17 5 13 3 -3 4 -12 1 -19z"/>
<path d="M2740 2221 c0 -11 -4 -23 -10 -26 -15 -9 -12 -25 5 -25 10 0 15 11
15 35 0 19 -2 35 -5 35 -3 0 -5 -9 -5 -19z"/>
<path d="M2837 2224 c-4 -4 -7 -18 -7 -31 0 -25 24 -32 33 -9 7 17 -15 50 -26
40z"/>
<path d="M3997 2063 c19 -14 36 -16 71 -7 38 11 24 19 -33 19 -47 0 -53 -2
-38 -12z"/>
<path d="M3932 2029 l3 -44 103 -3 102 -3 0 46 c0 25 -2 45 -5 45 -2 0 -25
-10 -49 -22 -47 -22 -51 -22 -149 21 -5 1 -7 -17 -5 -40z"/>
<path d="M170 1935 l0 -105 140 0 140 0 0 105 0 105 -140 0 -140 0 0 -105z
m243 -82 c-13 -2 -35 -2 -50 0 -16 2 -5 4 22 4 28 0 40 -2 28 -4z"/>
<path d="M170 1596 l0 -213 113 -7 c61 -3 121 -4 132 -2 11 3 23 5 28 5 4 1 7
98 7 216 l0 215 -140 0 -140 0 0 -214z m260 184 c0 -5 -20 -10 -45 -10 -25 0
-45 5 -45 10 0 6 20 10 45 10 25 0 45 -4 45 -10z"/>
<path d="M3380 1880 l0 -50 66 0 65 0 -3 48 -3 47 -62 3 -63 3 0 -51z"/>
<path d="M3543 1830 c-5 -18 -14 -20 -99 -20 -77 0 -94 3 -94 15 0 8 -9 15
-21 15 -18 0 -20 -5 -17 -52 3 -53 25 -78 35 -40 6 24 34 29 131 24 54 -3 62
-6 62 -24 0 -13 6 -18 18 -16 25 5 31 103 7 112 -12 4 -19 0 -22 -14z"/>
<path d="M3382 1729 c2 -7 28 -11 63 -11 35 0 61 4 63 11 2 7 -18 11 -63 11
-45 0 -65 -4 -63 -11z"/>
<path d="M2261 1775 c-89 -28 -154 -125 -166 -246 -3 -35 -8 -75 -11 -89 -4
-19 -2 -22 6 -10 8 12 10 10 10 -10 0 -41 44 -123 87 -162 52 -46 128 -66 191
-49 99 27 163 129 170 271 3 70 1 89 -12 102 -9 9 -13 23 -10 31 12 31 -54
124 -106 152 -41 21 -111 26 -159 10z m-66 -375 c-5 -8 -11 -8 -17 -2 -6 6 -7
16 -3 22 5 8 11 8 17 2 6 -6 7 -16 3 -22z"/>
<path d="M2086 1675 c-9 -26 -7 -32 5 -12 6 10 9 21 6 23 -2 3 -7 -2 -11 -11z"/>
<path d="M2086 1604 c-4 -20 -5 -38 -3 -40 3 -3 8 11 11 32 4 20 5 38 3 40 -3
3 -8 -11 -11 -32z"/>
<path d="M2082 1370 c0 -16 3 -32 7 -34 7 -5 6 52 -2 60 -2 2 -4 -9 -5 -26z"/>
<path d="M4220 1696 l0 -126 70 0 70 0 -2 108 c-1 59 -3 88 -5 65 l-4 -43 -60
0 -60 0 3 48 3 47 63 0 c34 0 62 3 62 8 0 4 -17 7 -39 7 -21 0 -53 3 -70 6
l-31 7 0 -127z m96 -77 c3 -6 -1 -18 -10 -27 -15 -15 -17 -15 -32 0 -19 19
-11 38 16 38 10 0 22 -5 26 -11z"/>
<path d="M4280 1610 c0 -5 5 -10 10 -10 6 0 10 5 10 10 0 6 -4 10 -10 10 -5 0
-10 -4 -10 -10z"/>
<path d="M4240 1745 l0 -35 50 0 50 0 0 35 0 35 -50 0 -50 0 0 -35z"/>
<path d="M1387 1763 c-12 -11 -8 -23 8 -23 8 0 15 7 15 15 0 16 -12 20 -23 8z"/>
<path d="M1350 1706 c-5 -13 -12 -40 -15 -60 l-7 -36 71 0 c52 0 69 3 67 13
-2 6 -10 33 -16 60 -12 46 -13 47 -52 47 -31 0 -40 -4 -48 -24z"/>
<path d="M4423 1814 c-7 -3 -13 -19 -13 -35 0 -26 3 -29 33 -29 42 0 47 5 38
38 -7 26 -31 37 -58 26z"/>
<path d="M4410 1695 c0 -44 0 -45 33 -45 19 0 36 2 38 4 3 3 3 23 1 45 -4 39
-6 41 -38 41 -34 0 -34 -1 -34 -45z"/>
<path d="M4417 1633 c-4 -3 -7 -19 -7 -35 0 -25 3 -28 34 -28 36 0 47 15 38
53 -4 17 -51 25 -65 10z"/>
<path d="M700 1645 l0 -36 143 3 142 3 3 33 3 32 -145 0 -146 0 0 -35z m270
10 c0 -8 -7 -15 -15 -15 -16 0 -20 12 -8 23 11 12 23 8 23 -8z m-200 -5 c0 -5
-11 -10 -25 -10 -14 0 -25 5 -25 10 0 6 11 10 25 10 14 0 25 -4 25 -10z m150
0 c0 -5 -4 -10 -10 -10 -5 0 -10 5 -10 10 0 6 5 10 10 10 6 0 10 -4 10 -10z"/>
<path d="M700 1440 l0 -160 145 0 145 0 0 160 0 160 -145 0 -145 0 0 -160z
m178 119 c113 -39 57 -212 -58 -179 -84 24 -94 136 -16 174 37 19 36 19 74 5z"/>
<path d="M799 1540 c-29 -17 -43 -66 -29 -100 19 -45 66 -63 115 -44 46 18 54
109 12 139 -24 17 -74 19 -98 5z m85 -21 c48 -38 23 -111 -39 -111 -62 0 -87
73 -39 111 15 12 32 21 39 21 7 0 24 -9 39 -21z"/>
<path d="M807 1502 c-22 -24 -21 -45 1 -65 24 -22 55 -21 75 1 22 24 21 45 -1
65 -24 22 -55 21 -75 -1z"/>
<path d="M3922 1658 c-14 -14 -16 -68 -2 -69 65 -6 75 -3 78 25 2 15 -2 34 -9
42 -14 17 -51 18 -67 2z"/>
<path d="M3894 1557 c-3 -8 -4 -36 -2 -63 l3 -49 60 0 60 0 0 60 0 60 -58 3
c-42 2 -59 -1 -63 -11z m81 -47 c-22 -23 -32 -27 -42 -19 -7 6 -13 16 -13 21
0 6 7 5 16 -2 13 -11 19 -10 37 8 33 33 35 26 2 -8z"/>
<path d="M4311 1277 c-100 -98 -104 -119 -13 -73 67 34 112 87 112 131 0 19
-1 35 -2 35 -2 0 -45 -42 -97 -93z"/>
<path d="M4420 1310 c0 -28 -52 -83 -105 -111 -50 -26 -52 -31 -29 -50 13 -11
27 -1 96 69 70 69 80 83 69 96 -18 22 -31 20 -31 -4z"/>
<path d="M3472 1288 c-15 -15 -16 -128 -1 -128 6 0 17 7 25 15 13 12 49 15
193 15 147 0 181 -3 191 -15 7 -8 19 -15 26 -15 18 0 19 111 2 128 -17 17 -28
15 -28 -6 0 -38 -18 -42 -190 -42 -172 0 -190 4 -190 42 0 21 -11 23 -28 6z"/>
<path d="M3510 1287 c0 -32 24 -37 180 -37 156 0 180 5 180 37 0 10 -39 13
-180 13 -141 0 -180 -3 -180 -13z"/>
<path d="M3515 1170 c-4 -7 57 -10 175 -10 118 0 179 3 175 10 -4 6 -73 10
-175 10 -102 0 -171 -4 -175 -10z"/>
<path d="M1360 1235 c-26 -32 13 -81 48 -59 34 22 22 74 -18 74 -10 0 -23 -7
-30 -15z"/>
<path d="M1351 1147 c-6 -6 -11 -21 -11 -34 0 -21 4 -23 50 -23 46 0 50 2 50
24 0 13 -6 28 -12 34 -17 13 -64 12 -77 -1z"/>
<path d="M424 1176 c-3 -8 -4 -23 -2 -33 4 -23 47 -24 62 -1 14 23 1 34 -21
17 -15 -11 -16 -11 -5 1 6 8 12 18 12 22 0 14 -40 9 -46 -6z"/>
<path d="M3046 903 c-11 -11 -6 -23 9 -23 8 0 15 4 15 9 0 13 -16 22 -24 14z"/>
<path d="M3055 864 c-5 -1 -23 -5 -38 -8 -27 -6 -67 -56 -67 -83 0 -10 28 -13
105 -13 96 0 105 2 105 19 0 39 -69 95 -105 85z"/>
<path d="M1575 880 c4 -6 58 -10 130 -10 72 0 126 4 130 10 4 6 -42 10 -130
10 -88 0 -134 -4 -130 -10z"/>
<path d="M1575 850 c4 -6 60 -10 136 -10 79 0 129 4 129 10 0 6 -52 10 -136
10 -87 0 -133 -4 -129 -10z"/>
<path d="M1575 810 c4 -6 58 -10 130 -10 72 0 126 4 130 10 4 6 -42 10 -130
10 -88 0 -134 -4 -130 -10z"/>
<path d="M1575 780 c4 -6 58 -10 130 -10 72 0 126 4 130 10 4 6 -42 10 -130
10 -88 0 -134 -4 -130 -10z"/>
<path d="M1580 752 c-6 -2 -8 -8 -4 -13 7 -12 251 -12 259 0 5 9 -232 21 -255
13z"/>
<path d="M1575 710 c4 -6 58 -10 130 -10 72 0 126 4 130 10 4 6 -42 10 -130
10 -88 0 -134 -4 -130 -10z"/>
<path d="M2630 660 l0 -170 33 0 c25 0 33 4 34 19 1 15 -6 21 -30 24 -18 2 1
5 41 5 l72 2 1 68 c0 37 1 102 2 145 l2 77 -77 0 -78 0 0 -170z m90 96 c0 -2
-7 -7 -16 -10 -8 -3 -12 -2 -9 4 6 10 25 14 25 6z m17 -48 c-3 -7 -5 -2 -5 12
0 14 2 19 5 13 2 -7 2 -19 0 -25z m-50 -23 c-16 -17 -20 -11 -12 16 5 16 9 18
15 9 4 -7 3 -19 -3 -25z m35 -27 c-9 -9 -15 -9 -24 1 -9 10 -9 12 -1 7 6 -3
15 -1 18 5 4 5 10 8 13 4 3 -3 0 -11 -6 -17z m-38 -13 c3 -8 1 -15 -4 -15 -6
0 -10 7 -10 15 0 8 2 15 4 15 2 0 6 -7 10 -15z m63 -7 c-3 -8 -6 -5 -6 6 -1
11 2 17 5 13 3 -3 4 -12 1 -19z"/>
<path d="M2727 510 c6 -24 58 -28 66 -6 8 20 -1 26 -39 26 -27 0 -31 -3 -27
-20z"/>
<path d="M750 735 l0 -75 140 0 140 0 0 75 0 75 -140 0 -140 0 0 -75z m260 54
c0 -5 -9 -9 -20 -9 -11 0 -20 4 -20 8 0 4 9 8 20 9 11 1 20 -2 20 -8z m-70
-54 l0 -55 -85 0 -85 0 0 55 0 55 85 0 85 0 0 -55z m60 -50 c0 -8 -7 -15 -15
-15 -16 0 -20 12 -8 23 11 12 23 8 23 -8z"/>
<path d="M795 772 c-3 -3 -5 -23 -5 -44 l0 -38 60 0 60 0 0 35 c0 19 0 38 0
42 0 9 -107 13 -115 5z"/>
<path d="M4394 811 c-30 -13 -65 -61 -60 -80 3 -9 6 -41 8 -72 2 -37 7 -55 14
-52 6 2 14 -6 18 -19 9 -37 7 -118 -4 -118 -5 0 -10 14 -10 30 0 56 -20 30
-21 -27 -1 -32 -2 -86 -4 -120 -3 -84 3 -88 127 -88 77 0 101 3 109 15 5 8 8
56 7 105 -3 74 -6 90 -18 88 -13 -2 -15 8 -14 56 2 62 11 91 23 73 3 -6 8 29
9 77 3 82 1 88 -23 111 -19 18 -39 24 -83 27 -31 1 -67 -1 -78 -6z m129 -112
c40 -11 46 -28 26 -72 -10 -22 -16 -23 -90 -23 l-79 0 -12 38 c-13 44 -11 48
34 58 48 11 78 11 121 -1z m-145 -289 c4 -37 -5 -80 -16 -80 -4 0 -7 27 -7 60
0 63 18 79 23 20z m190 -22 c2 -58 1 -61 -13 -43 -10 12 -14 32 -11 55 3 19 5
38 5 43 1 4 5 7 9 7 5 0 9 -28 10 -62z m-15 -82 c7 -18 -66 -28 -139 -20 -44
6 -52 9 -43 20 16 20 175 20 182 0z"/>
<path d="M3602 758 c3 -9 36 -14 106 -16 86 -2 102 0 102 13 0 12 -17 15 -106
15 -80 0 -105 -3 -102 -12z"/>
<path d="M2972 418 c2 -28 8 -34 31 -36 35 -4 57 13 57 44 0 22 -4 24 -46 24
-45 0 -45 0 -42 -32z m54 1 c8 -14 -11 -33 -25 -25 -11 7 -4 36 9 36 5 0 12
-5 16 -11z"/>
<path d="M3582 353 l2 -118 3 113 4 112 222 -2 222 -3 5 -145 6 -145 2 153 2
152 -235 0 -235 0 2 -117z"/>
<path d="M3602 423 l3 -28 210 0 210 0 0 25 0 25 -213 3 -213 2 3 -27z"/>
<path d="M3600 350 l0 -30 216 0 215 0 -3 28 -3 27 -212 3 -213 2 0 -30z m100
0 c0 -5 -13 -10 -30 -10 -16 0 -30 5 -30 10 0 6 14 10 30 10 17 0 30 -4 30
-10z m100 0 c0 -5 -16 -10 -35 -10 -19 0 -35 5 -35 10 0 6 16 10 35 10 19 0
35 -4 35 -10z m90 0 c0 -5 -13 -10 -30 -10 -16 0 -30 5 -30 10 0 6 14 10 30
10 17 0 30 -4 30 -10z m100 0 c0 -5 -13 -10 -30 -10 -16 0 -30 5 -30 10 0 6
14 10 30 10 17 0 30 -4 30 -10z"/>
<path d="M3600 270 l0 -30 215 0 215 0 0 30 0 30 -215 0 -215 0 0 -30z"/>
<path d="M3607 224 c-4 -4 -7 -20 -7 -36 l0 -28 213 2 212 3 0 30 0 30 -206 3
c-113 1 -208 -1 -212 -4z"/>
<path d="M3581 184 c0 -11 3 -14 6 -6 3 7 2 16 -1 19 -3 4 -6 -2 -5 -13z"/>
<path d="M282 288 l3 -93 53 -3 52 -3 0 95 0 96 -55 0 -56 0 3 -92z m82 53
c29 -32 -5 -72 -45 -51 -24 13 -25 46 -1 59 23 14 27 14 46 -8z m-1 -85 c6
-15 -11 -36 -29 -36 -14 0 -27 28 -18 41 8 14 41 11 47 -5z"/>
<path d="M314 329 c-3 -6 0 -18 9 -26 18 -18 37 -9 37 18 0 21 -34 27 -46 8z
m36 -9 c0 -5 -4 -10 -10 -10 -5 0 -10 5 -10 10 0 6 5 10 10 10 6 0 10 -4 10
-10z"/>
<path d="M325 251 c-6 -11 9 -23 19 -14 9 9 7 23 -3 23 -6 0 -12 -4 -16 -9z"/>
<path d="M780 285 l0 -95 50 0 50 0 0 95 0 95 -50 0 -50 0 0 -95z m74 59 c9
-8 16 -19 16 -24 0 -11 -29 -40 -40 -40 -11 0 -40 29 -40 40 0 11 29 40 40 40
5 0 16 -7 24 -16z m2 -85 c3 -6 -1 -18 -10 -27 -15 -15 -17 -15 -32 0 -9 9
-13 21 -10 27 9 14 43 14 52 0z"/>
<path d="M810 321 c0 -19 23 -35 34 -24 14 15 5 43 -14 43 -13 0 -20 -7 -20
-19z m30 -1 c0 -5 -4 -10 -10 -10 -5 0 -10 5 -10 10 0 6 5 10 10 10 6 0 10 -4
10 -10z"/>
<path d="M820 251 c0 -6 5 -13 10 -16 6 -3 10 1 10 9 0 9 -4 16 -10 16 -5 0
-10 -4 -10 -9z"/>
<path d="M568 273 c-20 -3 -28 -11 -31 -31 l-4 -27 -2 28 c-1 23 -5 27 -31 27
-27 0 -30 -3 -30 -30 l0 -30 116 0 115 0 -3 33 c-3 31 -4 32 -53 33 -27 1 -62
-1 -77 -3z m-61 -45 c-3 -7 -5 -2 -5 12 0 14 2 19 5 13 2 -7 2 -19 0 -25z m95
0 c-9 -9 -12 -7 -12 12 0 19 3 21 12 12 9 -9 9 -15 0 -24z m68 2 c0 -5 -2 -10
-4 -10 -3 0 -8 5 -11 10 -3 6 -1 10 4 10 6 0 11 -4 11 -10z"/>
<path d="M1247 293 c-4 -3 -7 -19 -7 -35 0 -22 5 -28 21 -28 11 0 32 -9 45
-19 22 -17 42 -19 202 -19 157 0 179 2 197 18 11 10 29 20 40 22 15 2 20 11
20 33 0 39 -29 41 -33 2 l-3 -27 -222 2 -222 3 -3 28 c-3 25 -20 35 -35 20z"/>
<path d="M1300 260 c0 -6 75 -10 205 -10 130 0 205 4 205 10 0 6 -75 10 -205
10 -130 0 -205 -4 -205 -10z"/>
<path d="M1250 179 c0 -38 24 -35 28 4 2 19 -1 27 -12 27 -11 0 -16 -10 -16
-31z"/>
<path d="M1730 186 c0 -28 19 -44 30 -26 11 17 0 50 -16 50 -8 0 -14 -10 -14
-24z"/>
</g>
</svg>
